<svg width="156" height="35" viewBox="0 0 156 35" fill="none" xmlns="http://www.w3.org/2000/svg">
<path fill-rule="evenodd" clip-rule="evenodd" d="M24 5L28.0761 29H35.6662L39.0215 10.443L42.3426 29H50.0381L53.3696 9.03976L57.0461 9.03976V29L67.7454 29H77.4768L79.422 29L80.687 24.1508H89.0853L90.4206 29H95.2698L90.214 9.03976L95.4749 9.03976L100.238 29L108.021 29H117.752L132.949 29V24.959H121.845V18.8448H130.84V14.8741H121.845V9.041H132.949V5H116.995V24.9603H109.618L114.294 5H109.199L105.158 24.3265H103.717L99.606 5H94.5108H89.1907H80.7222L75.6371 24.9603H72.9992V24.959H61.8953V18.8448H70.8909V14.8741H61.8953V9.041H72.9992V5H57.0461V5.00003L54.0439 5.00003L54.0439 5H49.1244L46.3484 24.3265H45.5051L41.7804 5.24597H36.3338L32.6793 24.3265H31.836L28.8843 5H24ZM88.3825 20.2504H81.4601L84.201 8.93558H85.6768L88.3825 20.2504Z" fill="white"/>
</svg>
